HIERARCHY
ROOT Hips
{
	OFFSET 0.000000 0.000000 0.000000
	CHANNELS 6 Xposition Yposition Zposition Zrotation Yrotation Xrotation 
	JOINT LHipJoint
	{
		OFFSET 0.000000 0.000000 0.000000
		CHANNELS 3 Zrotation Yrotation Xrotation
		JOINT LeftUpLeg
		{
			OFFSET 1.363060 -1.794630 0.839290
			CHANNELS 3 Zrotation Yrotation Xrotation
			JOINT LeftLeg
			{
				OFFSET 2.448110 -6.726130 0.000000
				CHANNELS 3 Zrotation Yrotation Xrotation
				JOINT LeftFoot
				{
					OFFSET 2.562200 -7.039590 0.000000
					CHANNELS 3 Zrotation Yrotation Xrotation
					JOINT LeftToeBase
					{
						OFFSET 0.157640 -0.433110 2.322550
						CHANNELS 3 Zrotation Yrotation Xrotation
						End Site
						{
							OFFSET 0.000000 0.000000 0.000000
						}
					}
				}
			}
		}
	}
	JOINT RHipJoint
	{
		OFFSET 0.000000 0.000000 0.000000
		CHANNELS 3 Zrotation Yrotation Xrotation
		JOINT RightUpLeg
		{
			OFFSET -1.305520 -1.794630 0.839290
			CHANNELS 3 Zrotation Yrotation Xrotation
			JOINT RightLeg
			{
				OFFSET -2.542530 -6.985550 0.000000
				CHANNELS 3 Zrotation Yrotation Xrotation
				JOINT RightFoot
				{
					OFFSET -2.568260 -7.056230 0.000000
					CHANNELS 3 Zrotation Yrotation Xrotation
					JOINT RightToeBase
					{
						OFFSET -0.164730 -0.452590 2.363150
						CHANNELS 3 Zrotation Yrotation Xrotation
						End Site
						{
							OFFSET 0.000000 0.000000 0.000000
						}
					}
				}
			}
		}
	}
	JOINT LowerBack
	{
		OFFSET 0.000000 0.000000 0.000000
		CHANNELS 3 Zrotation Yrotation Xrotation
		JOINT Spine
		{
			OFFSET 0.028270 2.035590 -0.193380
			CHANNELS 3 Zrotation Yrotation Xrotation
			JOINT Spine1
			{
				OFFSET 0.056720 2.048850 -0.042750
				CHANNELS 3 Zrotation Yrotation Xrotation
				JOINT Neck
				{
					OFFSET 0.000000 0.000000 0.000000
					CHANNELS 3 Zrotation Yrotation Xrotation
					JOINT Neck1
					{
						OFFSET -0.054170 1.746240 0.172020
						CHANNELS 3 Zrotation Yrotation Xrotation
						JOINT Head
						{
							OFFSET 0.104070 1.761360 -0.123970
							CHANNELS 3 Zrotation Yrotation Xrotation
							End Site
							{
								OFFSET 0.000000 0.000000 0.000000
							}
						}
					}
				}
				JOINT LeftShoulder
				{
					OFFSET 0.000000 0.000000 0.000000
					CHANNELS 3 Zrotation Yrotation Xrotation
					JOINT LeftArm
					{
						OFFSET 3.362410 1.200890 -0.311210
						CHANNELS 3 Zrotation Yrotation Xrotation
						JOINT LeftForeArm
						{
							OFFSET 4.983000 -0.000000 -0.000000
							CHANNELS 3 Zrotation Yrotation Xrotation
							JOINT LeftHand
							{
								OFFSET 3.483560 -0.000000 -0.000000
								CHANNELS 3 Zrotation Yrotation Xrotation
								JOINT LeftFingerBase
								{
									OFFSET 0.000000 0.000000 0.000000
									CHANNELS 3 Zrotation Yrotation Xrotation
									JOINT LeftHandIndex1
									{
										OFFSET 0.715260 -0.000000 -0.000000
										CHANNELS 3 Zrotation Yrotation Xrotation
										End Site
										{
											OFFSET 0.000000 0.000000 0.000000
										}
									}
								}
								JOINT LThumb
								{
									OFFSET 0.000000 0.000000 0.000000
									CHANNELS 3 Zrotation Yrotation Xrotation
									End Site
									{
										OFFSET 0.000000 0.000000 0.000000
									}
								}
							}
						}
					}
				}
				JOINT RightShoulder
				{
					OFFSET 0.000000 0.000000 0.000000
					CHANNELS 3 Zrotation Yrotation Xrotation
					JOINT RightArm
					{
						OFFSET -3.136600 1.374050 -0.404650
						CHANNELS 3 Zrotation Yrotation Xrotation
						JOINT RightForeArm
						{
							OFFSET -5.241900 -0.000000 -0.000000
							CHANNELS 3 Zrotation Yrotation Xrotation
							JOINT RightHand
							{
								OFFSET -3.444170 -0.000000 -0.000000
								CHANNELS 3 Zrotation Yrotation Xrotation
								JOINT RightFingerBase
								{
									OFFSET 0.000000 0.000000 0.000000
									CHANNELS 3 Zrotation Yrotation Xrotation
									JOINT RightHandIndex1
									{
										OFFSET -0.622530 -0.000000 -0.000000
										CHANNELS 3 Zrotation Yrotation Xrotation
										End Site
										{
											OFFSET 0.000000 0.000000 0.000000
										}
									}
								}
								JOINT RThumb
								{
									OFFSET 0.000000 0.000000 0.000000
									CHANNELS 3 Zrotation Yrotation Xrotation
									End Site
									{
										OFFSET 0.000000 0.000000 0.000000
									}
								}
							}
						}
					}
				}
			}
		}
	}
}
MOTION
Frames: 6
Frame Time: 0.008333
-0.313205 17.986162 -28.782387 -5.959604 -0.056309 3.230011 -4.165194 1.188386 2.179390 -10.321860 -7.994319 -26.832859 0.921422 10.084251 30.590060 1.670184 -3.509410 13.649504 0.100300 2.041900 5.621500 0.578109 -3.277708 4.445944 24.711784 0.642992 0.633668 -17.572975 -17.224525 79.803815 -0.335235 -19.868815 31.049612 -1.147600 -6.802200 19.130800 3.937871 0.641121 9.650798 0.813089 1.078119 8.784380 -2.529828 1.188461 -11.041928 -3.587198 -0.421023 -3.376009 2.924688 -0.833983 -3.941543 0.578100 -0.388700 -2.355100 -4.664601 5.120520 -1.760245 -77.886410 17.507462 41.983358 118.686553 -63.322466 -87.161159 0.395155 -1.422505 -29.634978 39.912723 8.588020 8.691900 -7.125000 0.000000 0.000000 12.105700 43.161700 -0.557900 5.517099 -3.902023 -2.796953 71.733583 -11.365103 52.084136 -56.776313 53.300880 -40.064522 2.024031 0.844028 4.484260 -38.661157 27.813002 -20.470000 7.125000 0.000000 0.000000 -6.359100 2.329600 -6.652800
-0.311928 17.958674 -28.596092 -5.889438 0.107217 3.098265 -4.140923 1.258499 2.242464 -10.534940 -8.234440 -26.482723 1.160761 10.335785 31.472989 1.550862 -3.265969 12.267698 0.063590 1.350529 3.717754 0.546469 -3.278104 4.394302 24.390802 0.492009 -0.392559 -18.099175 -17.307239 81.496084 -0.271771 -19.993828 30.643060 -1.232838 -7.033798 19.818820 3.824429 0.534336 9.872692 0.859150 0.941688 8.868208 -2.433831 1.120438 -11.134514 -3.674146 -0.333473 -3.252802 2.960623 -0.730854 -4.173101 0.601812 -0.340687 -2.453741 -4.696944 5.081238 -1.716630 -78.159571 16.464087 42.107089 118.880610 -63.234031 -87.324361 0.407817 -1.418129 -29.437222 39.683794 8.273192 8.368767 -7.125000 0.000000 0.000000 11.843246 42.737164 -0.666556 5.550910 -3.897471 -2.843639 71.800837 -11.573992 51.722031 -55.467375 52.820728 -38.775698 2.012720 0.770530 5.510692 -39.352830 27.549772 -20.760879 7.125000 0.000000 0.000000 -6.796265 2.307692 -7.114671
-0.310651 17.931186 -28.409796 -5.819272 0.270743 2.966519 -4.116653 1.328612 2.305537 -10.748020 -8.474560 -26.132587 1.400099 10.587319 32.355919 1.431540 -3.022528 10.885892 0.026881 0.659159 1.814009 0.514829 -3.278500 4.342661 24.069821 0.341027 -1.418785 -18.625375 -17.389953 83.188353 -0.208307 -20.118841 30.236509 -1.318077 -7.265397 20.506840 3.710986 0.427552 10.094585 0.905211 0.805256 8.952037 -2.337833 1.052414 -11.227100 -3.761094 -0.245922 -3.129596 2.996559 -0.627725 -4.404659 0.625524 -0.292673 -2.552382 -4.729287 5.041957 -1.673015 -78.432732 15.420711 42.230820 119.074666 -63.145596 -87.487563 0.420479 -1.413752 -29.239465 39.454865 7.958363 8.045634 -7.125000 0.000000 0.000000 11.580793 42.312629 -0.775212 5.584721 -3.892920 -2.890325 71.868090 -11.782881 51.359925 -54.158437 52.340575 -37.486874 2.001409 0.697032 6.537123 -40.044504 27.286543 -21.051757 7.125000 0.000000 0.000000 -7.233430 2.285784 -7.576542
-0.308724 17.901948 -28.224483 -5.743542 0.417178 2.832098 -4.101606 1.399320 2.376252 -10.959051 -8.682980 -25.745723 1.611693 10.804022 33.137088 1.338846 -2.846852 9.653563 0.001928 0.069169 0.189939 0.484955 -3.276667 4.289042 23.739400 0.220968 -2.454826 -19.145143 -17.464491 84.864857 -0.162989 -20.171617 29.878772 -1.391433 -7.462319 21.092873 3.613039 0.324914 10.337055 0.923646 0.678745 9.033452 -2.258917 0.987492 -11.333620 -3.822713 -0.159261 -3.014053 3.031635 -0.524819 -4.644971 0.645513 -0.245570 -2.653544 -4.758692 5.001488 -1.629555 -78.670749 14.349267 42.381591 119.247617 -63.062456 -87.635703 0.432313 -1.410257 -29.053959 39.247256 7.684471 7.764018 -7.125000 0.000000 0.000000 11.344887 41.943690 -0.867069 5.618072 -3.887678 -2.936038 71.968224 -12.000554 50.940047 -52.930803 51.885298 -36.283583 1.991910 0.625315 7.470501 -40.651088 27.099732 -21.345146 7.125000 0.000000 0.000000 -7.605553 2.327893 -7.978246
-0.305156 17.868302 -28.041642 -5.653794 0.520541 2.690936 -4.109803 1.471525 2.466223 -11.164917 -8.811512 -25.266302 1.753367 10.932949 33.661823 1.313257 -2.841944 8.797916 0.006605 -0.265342 -0.729348 0.459529 -3.269221 4.230441 23.385191 0.178835 -3.515597 -19.648702 -17.518425 86.501634 -0.163402 -20.042355 29.644049 -1.434844 -7.571859 21.421897 3.554138 0.232727 10.631377 0.872464 0.577231 9.108786 -2.223046 0.930384 -11.475252 -3.820503 -0.074839 -2.917823 3.064548 -0.422474 -4.907342 0.656117 -0.200760 -2.761059 -4.780693 4.958029 -1.586486 -78.820203 13.207090 42.600503 119.367381 -62.992656 -87.745888 0.442061 -1.408981 -28.899324 39.093371 7.513737 7.587023 -7.125000 0.000000 0.000000 11.175883 41.714853 -0.916592 5.650267 -3.880697 -2.979301 72.151216 -12.240359 50.374579 -51.908053 51.492704 -35.295837 1.986973 0.558085 8.169381 -41.043248 27.105496 -21.644862 7.125000 0.000000 0.000000 -7.813770 2.531324 -8.228328
-0.301589 17.834655 -27.858801 -5.564045 0.623904 2.549773 -4.118000 1.543730 2.556194 -11.370783 -8.940044 -24.786881 1.895042 11.061877 34.186557 1.287667 -2.837035 7.942269 0.011281 -0.599852 -1.648635 0.434102 -3.261774 4.171839 23.030983 0.136703 -4.576369 -20.152261 -17.572359 88.138410 -0.163816 -19.913094 29.409325 -1.478254 -7.681399 21.750921 3.495237 0.140539 10.925699 0.821282 0.475717 9.184119 -2.187174 0.873276 -11.616885 -3.818292 0.009583 -2.821594 3.097461 -0.320129 -5.169713 0.666721 -0.155950 -2.868573 -4.802695 4.914569 -1.543417 -78.969657 12.064914 42.819415 119.487145 -62.922857 -87.856072 0.451809 -1.407706 -28.744688 38.939486 7.343003 7.410029 -7.125000 0.000000 0.000000 11.006879 41.486016 -0.966115 5.682463 -3.873716 -3.022563 72.334208 -12.480165 49.809111 -50.885302 51.100111 -34.308091 1.982037 0.490856 8.868262 -41.435407 27.111260 -21.944577 7.125000 0.000000 0.000000 -8.021988 2.734755 -8.478410
